<?xml version="1.0" encoding="utf-8"?>
<!-- Generator: Adobe Illustrator 24.0.0, SVG Export Plug-In . SVG Version: 6.00 Build 0)  -->
<svg version="1.1" id="图层_1" xmlns="http://www.w3.org/2000/svg" xmlns:xlink="http://www.w3.org/1999/xlink" x="0px" y="0px"
	 viewBox="0 0 200 200" style="enable-background:new 0 0 200 200;" xml:space="preserve">
<style type="text/css">
	.st0{fill:#337BF6;}
	.st1{fill:#FFFFFF;}
</style>
<path class="st0" d="M188.3,33.8H11.7c-6.1,0-11,5-11,11v110.3c0,6.1,5,11,11,11h176.5c6.1,0,11-5,11-11V44.8
	C199.3,38.8,194.3,33.8,188.3,33.8z"/>
<rect x="111" y="55.9" class="st1" width="22.1" height="22.1"/>
<rect x="122" y="89" class="st1" width="22.1" height="22"/>
<rect x="77.9" y="55.9" class="st1" width="22.1" height="22.1"/>
<rect x="89" y="89" class="st1" width="22" height="22"/>
<rect x="44.8" y="55.9" class="st1" width="22.1" height="22.1"/>
<rect x="55.9" y="89" class="st1" width="22" height="22"/>
<rect x="22.8" y="55.9" class="st1" width="11" height="22.1"/>
<rect x="22.8" y="89" class="st1" width="22.1" height="22"/>
<rect x="22.8" y="122" class="st1" width="11" height="22.1"/>
<rect x="44.8" y="122" class="st1" width="88.3" height="22.1"/>
<polygon class="st1" points="177.2,144.1 144.1,144.1 144.1,122 177.2,122 177.2,144.1 "/>
<polygon class="st1" points="177.2,111 155.1,111 155.1,89 177.2,89 177.2,111 "/>
<polygon class="st1" points="177.2,77.9 144.1,77.9 144.1,55.9 177.2,55.9 177.2,77.9 "/>
</svg>
