<?xml version="1.0" encoding="utf-8"?>
<!-- Generator: Adobe Illustrator 24.0.0, SVG Export Plug-In . SVG Version: 6.00 Build 0)  -->
<svg version="1.1" id="图层_1" xmlns="http://www.w3.org/2000/svg" xmlns:xlink="http://www.w3.org/1999/xlink" x="0px" y="0px"
	 viewBox="0 0 200 200" style="enable-background:new 0 0 200 200;" xml:space="preserve">
<style type="text/css">
	.st0{fill:#337BF6;}
</style>
<path class="st0" d="M188.3,33.8H11.7c-6.1,0-11,5-11,11v110.3c0,6.1,5,11,11,11h176.5c6.1,0,11-5,11-11V44.8
	C199.3,38.8,194.3,33.8,188.3,33.8z M111,55.9h22.1v22.1H111V55.9z M144.1,89V111h-22.1V89H144.1z M77.9,55.9H100v22.1H77.9V55.9z
	 M111,89V111H89V89H111z M44.8,55.9h22.1v22.1H44.8V55.9z M77.9,89V111H55.9V89H77.9z M22.8,55.9h11v22.1h-11V55.9z M22.8,89h22.1
	V111H22.8V89z M33.8,144.1h-11v-22.1h11V144.1z M133.1,144.1H44.8v-22.1h88.3V144.1z M177.2,144.1h-33.1v-22.1h33.1V144.1z
	 M177.2,111h-22.1V89h22.1L177.2,111L177.2,111z M177.2,77.9h-33.1V55.9h33.1V77.9z"/>
</svg>
