<?xml version="1.0" encoding="UTF-8"?>
<svg width="32px" height="19px" viewBox="0 0 32 19" version="1.1" xmlns="http://www.w3.org/2000/svg" xmlns:xlink="http://www.w3.org/1999/xlink">
    <title>icon-keyborad</title>
    <g id="清洁环境取证" stroke="none" stroke-width="1" fill="none" fill-rule="evenodd">
        <g id="6-进入VDI桌面备份-6" transform="translate(-251.000000, -354.000000)" fill="#666666" fill-rule="nonzero">
            <g id="编组" transform="translate(32.000000, 272.000000)">
                <g id="icon-keyborad" transform="translate(219.000000, 82.000000)">
                    <path d="M6.39412386,12.9425195 L6.39412386,14.5086294 C6.39412386,14.6858268 6.30431179,14.7744812 6.12506289,14.7744812 L4.54154125,14.7744812 C4.36229235,14.7744812 4.27268666,14.6858454 4.27268666,14.5086294 L4.27268666,12.9425195 C4.27268666,12.7651179 4.36229235,12.6764821 4.54154125,12.6764821 L6.12506289,12.6764821 C6.30431179,12.6764821 6.39412386,12.7651179 6.39412386,12.9425195 L6.39412386,12.9425195 Z M8.5453358,8.71700071 L8.5453358,10.283055 C8.5453358,10.4603266 8.45552373,10.5489439 8.27633112,10.5489439 L4.54154125,10.5489439 C4.36229235,10.5489439 4.27268666,10.4603266 4.27268666,10.283055 L4.27268666,8.71700071 C4.27268666,8.53972905 4.36229235,8.45096334 4.54154125,8.45096334 L8.27633112,8.45096334 C8.45552373,8.45109322 8.5453358,8.53972905 8.5453358,8.71700071 L8.5453358,8.71700071 Z M6.39412386,4.49146337 L6.39412386,6.08716806 C6.39412386,6.26445827 6.30431179,6.3530941 6.12506289,6.3530941 L4.54154125,6.3530941 C4.36229235,6.3530941 4.27268666,6.26445827 4.27268666,6.08718661 L4.27268666,4.49146337 C4.27268666,4.31419172 4.36229235,4.22557444 4.54154125,4.22557444 L6.12506289,4.22557444 C6.30431179,4.22557444 6.39412386,4.31419172 6.39412386,4.49146337 L6.39412386,4.49146337 Z M23.4846078,12.942538 L23.4846078,14.508648 C23.4846078,14.6858454 23.3949834,14.7744998 23.2155469,14.7744998 L8.81417163,14.7744998 C8.63492273,14.7744998 8.5450919,14.6858639 8.5450919,14.508648 L8.5450919,12.942538 C8.5450919,12.7651365 8.63492273,12.6765007 8.81417163,12.6765007 L23.2155469,12.6765007 C23.3949834,12.6765007 23.4846078,12.7651365 23.4846078,12.942538 Z M12.8180037,8.71700071 L12.8180037,10.283055 C12.8180037,10.4603266 12.7282479,10.5489439 12.548999,10.5489439 L10.9356651,10.5489439 C10.7562286,10.5489439 10.6666041,10.4603266 10.6666041,10.283055 L10.6666041,8.71700071 C10.6666041,8.53972905 10.7562286,8.45096334 10.9356463,8.45096334 L12.548999,8.45096334 C12.7282479,8.45109322 12.8180037,8.53972905 12.8180037,8.71700071 Z M10.6666041,4.49146337 L10.6666041,6.08716806 C10.6666041,6.26445827 10.5769797,6.3530941 10.3977308,6.3530941 L8.81420915,6.3530941 C8.63496025,6.3530941 8.54514818,6.26445827 8.54514818,6.08718661 L8.54514818,4.49146337 C8.54514818,4.31419172 8.63496025,4.22557444 8.81420915,4.22557444 L10.3977308,4.22557444 C10.5769797,4.22557444 10.6666041,4.31419172 10.6666041,4.49146337 L10.6666041,4.49146337 Z M17.060728,8.71698215 L17.060728,10.2830364 C17.060728,10.4603081 16.9809722,10.5489253 16.8216669,10.5489253 L15.2081454,10.5489253 C15.0288965,10.5489253 14.939272,10.4603081 14.939272,10.2830364 L14.939272,8.71698215 C14.939272,8.53971049 15.0288965,8.45094478 15.2081266,8.45094478 L16.8216669,8.45094478 C16.9809722,8.45107467 17.060728,8.53971049 17.060728,8.71698215 L17.060728,8.71698215 Z M14.939272,4.49144482 L14.939272,6.0871495 C14.939272,6.26443971 14.8496476,6.35307554 14.6703987,6.35307554 L13.086877,6.35307554 C12.9074405,6.35307554 12.8178348,6.26443971 12.8178348,6.08716806 L12.8178348,4.49144482 C12.8178348,4.31417316 12.9074405,4.22555589 13.086877,4.22555589 L14.6703987,4.22555589 C14.8496476,4.22555589 14.939272,4.31417316 14.939272,4.49144482 L14.939272,4.49144482 Z M21.3333959,8.71698215 L21.3333959,10.2830364 C21.3333959,10.4603081 21.2435838,10.5489253 21.0643349,10.5489253 L19.4808133,10.5489253 C19.3015644,10.5489253 19.2119399,10.4603081 19.2119399,10.2830364 L19.2119399,8.71698215 C19.2119399,8.53971049 19.3015644,8.45094478 19.4807945,8.45094478 L21.0643349,8.45094478 C21.2437714,8.45107467 21.3333959,8.53971049 21.3333959,8.71698215 L21.3333959,8.71698215 Z M27.7572757,12.9425195 L27.7572757,14.5086294 C27.7572757,14.6858268 27.6674637,14.7744812 27.4882335,14.7744812 L25.8748808,14.7744812 C25.6954443,14.7744812 25.6058386,14.6858454 25.6058386,14.5086294 L25.6058386,12.9425195 C25.6058386,12.7651179 25.6954443,12.6764821 25.8748808,12.6764821 L27.4882148,12.6764821 C27.6677076,12.6764821 27.7572757,12.7651179 27.7572757,12.9425195 Z M19.2119399,4.49144482 L19.2119399,6.0871495 C19.2119399,6.26443971 19.1223155,6.35307554 18.9430853,6.35307554 L17.329545,6.35307554 C17.1502961,6.35307554 17.0606905,6.26443971 17.0606905,6.08716806 L17.0606905,4.49144482 C17.0606905,4.31417316 17.1502961,4.22555589 17.329545,4.22555589 L18.9430666,4.22555589 C19.1223155,4.22555589 19.2119399,4.31417316 19.2119399,4.49144482 L19.2119399,4.49144482 Z M23.4846078,4.49144482 L23.4846078,6.0871495 C23.4846078,6.26443971 23.3949834,6.35307554 23.2155469,6.35307554 L21.6022317,6.35307554 C21.422964,6.35307554 21.3333396,6.26443971 21.3333396,6.08716806 L21.3333396,4.49144482 C21.3333396,4.31417316 21.422964,4.22555589 21.6022129,4.22555589 L23.2155469,4.22555589 C23.3949834,4.22555589 23.4846078,4.31417316 23.4846078,4.49144482 L23.4846078,4.49144482 Z M27.7572757,4.49144482 L27.7572757,10.2830364 C27.7572757,10.4603081 27.6674637,10.5489253 27.4882335,10.5489253 L23.7534812,10.5489253 C23.5742323,10.5489253 23.4846266,10.4603081 23.4846266,10.2830364 L23.4846266,8.71698215 C23.4846266,8.53971049 23.5742323,8.45094478 23.7534812,8.45094478 L25.6060638,8.45094478 L25.6060638,4.49144482 C25.6060638,4.31417316 25.6956882,4.22555589 25.8749184,4.22555589 L27.488271,4.22555589 C27.6677076,4.22555589 27.7572757,4.31417316 27.7572757,4.49144482 Z M29.878544,16.9020565 L29.878544,2.12753821 L2.12145596,2.12753821 L2.12145596,16.9020565 L29.878544,16.9020565 L29.878544,16.9020565 Z M32,2.12753821 L32,16.902038 C32,17.473393 31.7909388,17.9658164 31.3724788,18.3794193 C30.9541688,18.7931521 30.4563469,19 29.8785816,19 L2.12145596,19 C1.54363435,19 1.04581246,18.793115 0.627502483,18.3794193 C0.209061172,17.9657793 0,17.473226 0,16.902038 L0,2.12753821 C0,1.53657083 0.209061172,1.03429496 0.627502483,0.620580684 C1.04581246,0.206755078 1.54363435,0 2.12145596,0 L29.878544,0 C30.4762343,0 30.9741124,0.206755078 31.3724412,0.620580684 C31.7709952,1.03427641 31.9800564,1.53657083 32,2.12753821 Z" id="形状"></path>
                </g>
            </g>
        </g>
    </g>
</svg>