<svg width="36" height="36" viewBox="0 0 36 36" fill="none" xmlns="http://www.w3.org/2000/svg">
<path d="M18 36C27.9411 36 36 27.9411 36 18C36 8.05888 27.9411 0 18 0C8.05888 0 0 8.05888 0 18C0 27.9411 8.05888 36 18 36Z" fill="#F28F7C"/>
<path d="M26.2139 23.4176C26.9129 24.1166 26.9129 25.3399 26.2139 26.039C25.5149 26.738 24.2916 26.738 23.5925 26.039L18.1751 20.6215L12.5828 26.2137C11.8838 26.9127 10.6605 26.9127 9.96148 26.2137C9.26245 25.5147 9.26245 24.2914 9.96148 23.5924L15.379 18.1749L9.78672 12.5826C9.08769 11.8836 9.08769 10.6603 9.78672 9.96128C10.4858 9.26225 11.7091 9.26225 12.4081 9.96128L17.8256 15.3788L23.243 9.96128C23.9421 9.26225 25.1654 9.26225 25.8644 9.96128C26.5634 10.6603 26.5634 11.8836 25.8644 12.5826L20.4469 18.0001L26.2139 23.4176Z" fill="white"/>
</svg>
