<svg width="36" height="36" viewBox="0 0 36 36" fill="none" xmlns="http://www.w3.org/2000/svg">
<path d="M18 0C7.95349 0 0 7.95349 0 18C0 27.8372 7.95349 36 18 36C28.0465 36 36 28.0465 36 18C36 7.95349 27.8372 0 18 0ZM29.7209 12.5581L15.907 26.3721C15.0698 27.2093 14.0233 27.2093 13.186 26.3721L6.06977 19.0465C5.23256 18.2093 5.23256 17.1628 6.06977 16.3256C6.90698 15.4884 7.95349 15.4884 8.7907 16.3256L14.6512 22.186L27 9.83721C27.8372 9 28.8837 9 29.7209 9.83721C30.5581 10.6744 30.3488 11.7209 29.7209 12.5581Z" fill="#93BF78"/>
</svg>
